<svg xmlns="http://www.w3.org/2000/svg" viewBox="0 0 1200 800" role="img" aria-label="Abstract community humanitarian illustration">
  <defs>
    <linearGradient id="g" x1="0" x2="1" y1="0" y2="1">
      <stop offset="0" stop-color="#0F4C81"/>
      <stop offset="1" stop-color="#F4B400"/>
    </linearGradient>
    <filter id="s" x="-20%" y="-20%" width="140%" height="140%">
      <feDropShadow dx="0" dy="22" stdDeviation="20" flood-opacity=".22"/>
    </filter>
  </defs>
  <rect width="1200" height="800" fill="#F7F9FC"/>
  <circle cx="1010" cy="120" r="180" fill="#F4B400" opacity=".22"/>
  <circle cx="180" cy="690" r="250" fill="#0F4C81" opacity=".14"/>
  <g filter="url(#s)">
    <rect x="170" y="155" width="860" height="505" rx="56" fill="white"/>
    <circle cx="390" cy="315" r="82" fill="#0F4C81"/>
    <circle cx="600" cy="288" r="96" fill="#F4B400"/>
    <circle cx="805" cy="330" r="78" fill="#0F4C81" opacity=".82"/>
    <path d="M258 586c24-108 91-164 187-164s160 56 184 164" fill="#0F4C81" opacity=".14"/>
    <path d="M442 586c31-128 112-193 243-193s212 65 243 193" fill="url(#g)" opacity=".24"/>
    <path d="M658 586c25-103 88-154 188-154s164 51 189 154" fill="#F4B400" opacity=".2"/>
    <path d="M323 215h560" stroke="#E2E8F0" stroke-width="20" stroke-linecap="round"/>
    <path d="M323 637h560" stroke="#E2E8F0" stroke-width="16" stroke-linecap="round"/>
  </g>
</svg>
